<svg xmlns="http://www.w3.org/2000/svg" xmlns:xlink="http://www.w3.org/1999/xlink" width="3000" zoomAndPan="magnify" viewBox="0 0 2250 2250.000011" height="3000" preserveAspectRatio="xMidYMid meet" version="1.0"><defs><g/><clipPath id="92b1dbb670"><path d="M 0.5 0 L 2249.5 0 L 2249.5 2249 L 0.5 2249 Z M 0.5 0 " clip-rule="nonzero"/></clipPath><clipPath id="61fb5d3eb3"><path d="M 354.214844 353.714844 L 1895.53125 353.714844 L 1895.53125 1895.03125 L 354.214844 1895.03125 Z M 354.214844 353.714844 " clip-rule="nonzero"/></clipPath><clipPath id="6ae8e52b83"><path d="M 1895.53125 1124.375 C 1895.53125 1136.984375 1895.222656 1149.589844 1894.601562 1162.1875 C 1893.984375 1174.785156 1893.054688 1187.359375 1891.820312 1199.910156 C 1890.582031 1212.460938 1889.039062 1224.976562 1887.191406 1237.453125 C 1885.339844 1249.929688 1883.183594 1262.351562 1880.722656 1274.722656 C 1878.261719 1287.089844 1875.5 1299.394531 1872.433594 1311.628906 C 1869.371094 1323.863281 1866.007812 1336.015625 1862.347656 1348.082031 C 1858.683594 1360.152344 1854.730469 1372.125 1850.480469 1384 C 1846.230469 1395.875 1841.695312 1407.640625 1836.867188 1419.292969 C 1832.042969 1430.945312 1826.929688 1442.46875 1821.539062 1453.871094 C 1816.148438 1465.273438 1810.476562 1476.535156 1804.53125 1487.660156 C 1798.585938 1498.78125 1792.371094 1509.753906 1785.886719 1520.570312 C 1779.402344 1531.386719 1772.660156 1542.039062 1765.652344 1552.527344 C 1758.644531 1563.015625 1751.382812 1573.324219 1743.871094 1583.453125 C 1736.359375 1593.582031 1728.601562 1603.523438 1720.597656 1613.273438 C 1712.597656 1623.023438 1704.363281 1632.570312 1695.894531 1641.914062 C 1687.421875 1651.261719 1678.726562 1660.390625 1669.808594 1669.3125 C 1660.890625 1678.230469 1651.761719 1686.921875 1642.414062 1695.394531 C 1633.070312 1703.863281 1623.523438 1712.097656 1613.773438 1720.101562 C 1604.023438 1728.101562 1594.082031 1735.859375 1583.953125 1743.371094 C 1573.824219 1750.882812 1563.515625 1758.144531 1553.027344 1765.152344 C 1542.539062 1772.160156 1531.886719 1778.902344 1521.070312 1785.386719 C 1510.253906 1791.871094 1499.28125 1798.085938 1488.160156 1804.03125 C 1477.035156 1809.976562 1465.773438 1815.648438 1454.371094 1821.039062 C 1442.96875 1826.433594 1431.441406 1831.542969 1419.789062 1836.367188 C 1408.136719 1841.195312 1396.375 1845.730469 1384.5 1849.980469 C 1372.625 1854.230469 1360.652344 1858.183594 1348.582031 1861.847656 C 1336.515625 1865.507812 1324.363281 1868.871094 1312.128906 1871.933594 C 1299.894531 1875 1287.589844 1877.761719 1275.222656 1880.222656 C 1262.851562 1882.683594 1250.429688 1884.839844 1237.953125 1886.691406 C 1225.476562 1888.539062 1212.960938 1890.082031 1200.410156 1891.320312 C 1187.859375 1892.554688 1175.285156 1893.484375 1162.6875 1894.101562 C 1150.089844 1894.722656 1137.484375 1895.03125 1124.875 1895.03125 C 1112.261719 1895.03125 1099.65625 1894.722656 1087.058594 1894.101562 C 1074.460938 1893.484375 1061.886719 1892.554688 1049.335938 1891.320312 C 1036.785156 1890.082031 1024.269531 1888.539062 1011.792969 1886.691406 C 999.320312 1884.839844 986.894531 1882.683594 974.523438 1880.222656 C 962.15625 1877.761719 949.851562 1875 937.617188 1871.933594 C 925.382812 1868.871094 913.234375 1865.507812 901.164062 1861.847656 C 889.09375 1858.183594 877.121094 1854.230469 865.246094 1849.980469 C 853.371094 1845.734375 841.609375 1841.195312 829.957031 1836.367188 C 818.304688 1831.542969 806.777344 1826.433594 795.375 1821.039062 C 783.972656 1815.648438 772.710938 1809.976562 761.585938 1804.03125 C 750.464844 1798.085938 739.492188 1791.871094 728.675781 1785.386719 C 717.859375 1778.902344 707.207031 1772.160156 696.71875 1765.152344 C 686.230469 1758.144531 675.921875 1750.882812 665.792969 1743.371094 C 655.664062 1735.859375 645.722656 1728.101562 635.972656 1720.101562 C 626.222656 1712.097656 616.675781 1703.863281 607.332031 1695.394531 C 597.984375 1686.921875 588.855469 1678.230469 579.9375 1669.308594 C 571.019531 1660.390625 562.324219 1651.261719 553.855469 1641.914062 C 545.382812 1632.570312 537.148438 1623.023438 529.148438 1613.273438 C 521.144531 1603.523438 513.386719 1593.582031 505.875 1583.453125 C 498.363281 1573.324219 491.101562 1563.015625 484.09375 1552.527344 C 477.089844 1542.039062 470.34375 1531.386719 463.859375 1520.570312 C 457.375 1509.753906 451.160156 1498.78125 445.214844 1487.660156 C 439.269531 1476.535156 433.601562 1465.273438 428.207031 1453.871094 C 422.816406 1442.46875 417.707031 1430.945312 412.878906 1419.292969 C 408.050781 1407.640625 403.515625 1395.875 399.265625 1384 C 395.015625 1372.125 391.0625 1360.152344 387.398438 1348.082031 C 383.738281 1336.015625 380.375 1323.863281 377.3125 1311.628906 C 374.246094 1299.394531 371.484375 1287.089844 369.023438 1274.722656 C 366.5625 1262.351562 364.40625 1249.929688 362.558594 1237.453125 C 360.707031 1224.976562 359.164062 1212.460938 357.925781 1199.910156 C 356.691406 1187.359375 355.761719 1174.785156 355.144531 1162.1875 C 354.523438 1149.589844 354.214844 1136.984375 354.214844 1124.375 C 354.214844 1111.761719 354.523438 1099.15625 355.144531 1086.558594 C 355.761719 1073.960938 356.691406 1061.386719 357.925781 1048.835938 C 359.164062 1036.285156 360.707031 1023.769531 362.558594 1011.292969 C 364.40625 998.820312 366.5625 986.394531 369.023438 974.027344 C 371.484375 961.65625 374.246094 949.351562 377.3125 937.117188 C 380.375 924.882812 383.738281 912.734375 387.398438 900.664062 C 391.0625 888.59375 395.015625 876.621094 399.265625 864.746094 C 403.515625 852.871094 408.050781 841.109375 412.878906 829.457031 C 417.707031 817.804688 422.816406 806.277344 428.207031 794.875 C 433.601562 783.472656 439.269531 772.210938 445.214844 761.089844 C 451.160156 749.964844 457.375 738.996094 463.859375 728.175781 C 470.34375 717.359375 477.089844 706.707031 484.09375 696.21875 C 491.101562 685.734375 498.363281 675.425781 505.875 665.292969 C 513.386719 655.164062 521.144531 645.222656 529.148438 635.472656 C 537.148438 625.722656 545.382812 616.175781 553.855469 606.832031 C 562.324219 597.488281 571.019531 588.355469 579.9375 579.4375 C 588.855469 570.519531 597.984375 561.824219 607.332031 553.355469 C 616.675781 544.882812 626.222656 536.648438 635.972656 528.648438 C 645.722656 520.644531 655.664062 512.890625 665.792969 505.375 C 675.921875 497.863281 686.230469 490.601562 696.71875 483.59375 C 707.207031 476.589844 717.859375 469.84375 728.675781 463.359375 C 739.496094 456.875 750.464844 450.660156 761.589844 444.714844 C 772.710938 438.769531 783.972656 433.101562 795.375 427.707031 C 806.777344 422.316406 818.304688 417.207031 829.957031 412.378906 C 841.609375 407.550781 853.371094 403.015625 865.246094 398.765625 C 877.121094 394.515625 889.09375 390.5625 901.164062 386.902344 C 913.234375 383.238281 925.382812 379.875 937.617188 376.8125 C 949.851562 373.746094 962.15625 370.984375 974.527344 368.523438 C 986.894531 366.0625 999.320312 363.90625 1011.792969 362.058594 C 1024.269531 360.207031 1036.785156 358.664062 1049.335938 357.425781 C 1061.886719 356.191406 1074.460938 355.261719 1087.058594 354.644531 C 1099.65625 354.027344 1112.261719 353.714844 1124.875 353.714844 C 1137.484375 353.714844 1150.089844 354.027344 1162.6875 354.644531 C 1175.285156 355.261719 1187.859375 356.191406 1200.410156 357.425781 C 1212.960938 358.664062 1225.476562 360.207031 1237.953125 362.058594 C 1250.429688 363.90625 1262.851562 366.0625 1275.222656 368.523438 C 1287.589844 370.984375 1299.894531 373.746094 1312.128906 376.8125 C 1324.363281 379.875 1336.515625 383.238281 1348.582031 386.902344 C 1360.652344 390.5625 1372.625 394.515625 1384.5 398.765625 C 1396.375 403.015625 1408.136719 407.550781 1419.789062 412.378906 C 1431.441406 417.207031 1442.96875 422.316406 1454.371094 427.707031 C 1465.773438 433.101562 1477.035156 438.769531 1488.160156 444.714844 C 1499.28125 450.660156 1510.253906 456.875 1521.070312 463.359375 C 1531.886719 469.84375 1542.539062 476.589844 1553.027344 483.59375 C 1563.515625 490.601562 1573.824219 497.863281 1583.953125 505.375 C 1594.082031 512.890625 1604.023438 520.644531 1613.773438 528.648438 C 1623.523438 536.648438 1633.070312 544.882812 1642.414062 553.355469 C 1651.761719 561.824219 1660.890625 570.519531 1669.808594 579.4375 C 1678.730469 588.355469 1687.421875 597.488281 1695.894531 606.832031 C 1704.363281 616.175781 1712.597656 625.722656 1720.597656 635.472656 C 1728.601562 645.222656 1736.359375 655.164062 1743.871094 665.292969 C 1751.382812 675.425781 1758.644531 685.734375 1765.652344 696.21875 C 1772.660156 706.707031 1779.402344 717.359375 1785.886719 728.175781 C 1792.371094 738.996094 1798.585938 749.964844 1804.53125 761.089844 C 1810.476562 772.210938 1816.148438 783.472656 1821.539062 794.875 C 1826.929688 806.277344 1832.042969 817.804688 1836.867188 829.457031 C 1841.695312 841.109375 1846.230469 852.871094 1850.480469 864.746094 C 1854.730469 876.621094 1858.683594 888.59375 1862.347656 900.664062 C 1866.007812 912.734375 1869.371094 924.882812 1872.433594 937.117188 C 1875.5 949.351562 1878.261719 961.65625 1880.722656 974.027344 C 1883.183594 986.394531 1885.339844 998.820312 1887.1875 1011.292969 C 1889.039062 1023.769531 1890.582031 1036.285156 1891.820312 1048.835938 C 1893.054688 1061.386719 1893.984375 1073.960938 1894.601562 1086.558594 C 1895.222656 1099.15625 1895.53125 1111.761719 1895.53125 1124.375 Z M 1895.53125 1124.375 " clip-rule="nonzero"/></clipPath><linearGradient x1="1770.926025" gradientTransform="matrix(0.000000000000000736, 12.013365, -12.013365, 0.000000000000000736, 4066.152835, -20921.064851)" y1="244.834" x2="1899.22603" gradientUnits="userSpaceOnUse" y2="244.834" id="44b6df8656"><stop stop-opacity="1" stop-color="rgb(93.699646%, 54.499817%, 54.499817%)" offset="0"/><stop stop-opacity="1" stop-color="rgb(93.737793%, 54.629517%, 54.629517%)" offset="0.0078125"/><stop stop-opacity="1" stop-color="rgb(93.815613%, 54.890442%, 54.890442%)" offset="0.015625"/><stop stop-opacity="1" stop-color="rgb(93.891907%, 55.149841%, 55.149841%)" offset="0.0234375"/><stop stop-opacity="1" stop-color="rgb(93.969727%, 55.410767%, 55.410767%)" offset="0.03125"/><stop stop-opacity="1" stop-color="rgb(94.047546%, 55.671692%, 55.671692%)" offset="0.0390625"/><stop stop-opacity="1" stop-color="rgb(94.125366%, 55.932617%, 55.932617%)" offset="0.046875"/><stop stop-opacity="1" stop-color="rgb(94.203186%, 56.193542%, 56.193542%)" offset="0.0546875"/><stop stop-opacity="1" stop-color="rgb(94.27948%, 56.454468%, 56.454468%)" offset="0.0625"/><stop stop-opacity="1" stop-color="rgb(94.3573%, 56.715393%, 56.715393%)" offset="0.0703125"/><stop stop-opacity="1" stop-color="rgb(94.43512%, 56.976318%, 56.976318%)" offset="0.078125"/><stop stop-opacity="1" stop-color="rgb(94.512939%, 57.237244%, 57.237244%)" offset="0.0859375"/><stop stop-opacity="1" stop-color="rgb(94.589233%, 57.498169%, 57.498169%)" offset="0.09375"/><stop stop-opacity="1" stop-color="rgb(94.667053%, 57.759094%, 57.759094%)" offset="0.101562"/><stop stop-opacity="1" stop-color="rgb(94.744873%, 58.02002%, 58.02002%)" offset="0.109375"/><stop stop-opacity="1" stop-color="rgb(94.822693%, 58.280945%, 58.280945%)" offset="0.117188"/><stop stop-opacity="1" stop-color="rgb(94.900513%, 58.54187%, 58.54187%)" offset="0.125"/><stop stop-opacity="1" stop-color="rgb(94.976807%, 58.802795%, 58.802795%)" offset="0.132812"/><stop stop-opacity="1" stop-color="rgb(95.054626%, 59.063721%, 59.063721%)" offset="0.140625"/><stop stop-opacity="1" stop-color="rgb(95.132446%, 59.32312%, 59.32312%)" offset="0.148438"/><stop stop-opacity="1" stop-color="rgb(95.210266%, 59.584045%, 59.584045%)" offset="0.15625"/><stop stop-opacity="1" stop-color="rgb(95.288086%, 59.844971%, 59.844971%)" offset="0.164062"/><stop stop-opacity="1" stop-color="rgb(95.36438%, 60.105896%, 60.105896%)" offset="0.171875"/><stop stop-opacity="1" stop-color="rgb(95.4422%, 60.366821%, 60.366821%)" offset="0.179688"/><stop stop-opacity="1" stop-color="rgb(95.52002%, 60.627747%, 60.627747%)" offset="0.1875"/><stop stop-opacity="1" stop-color="rgb(95.597839%, 60.888672%, 60.888672%)" offset="0.195312"/><stop stop-opacity="1" stop-color="rgb(95.675659%, 61.149597%, 61.149597%)" offset="0.203125"/><stop stop-opacity="1" stop-color="rgb(95.751953%, 61.410522%, 61.410522%)" offset="0.210938"/><stop stop-opacity="1" stop-color="rgb(95.829773%, 61.671448%, 61.671448%)" offset="0.21875"/><stop stop-opacity="1" stop-color="rgb(95.907593%, 61.932373%, 61.932373%)" offset="0.226562"/><stop stop-opacity="1" stop-color="rgb(95.985413%, 62.193298%, 62.193298%)" offset="0.234375"/><stop stop-opacity="1" stop-color="rgb(96.063232%, 62.454224%, 62.454224%)" offset="0.242187"/><stop stop-opacity="1" stop-color="rgb(96.139526%, 62.715149%, 62.715149%)" offset="0.25"/><stop stop-opacity="1" stop-color="rgb(96.217346%, 62.976074%, 62.976074%)" offset="0.257812"/><stop stop-opacity="1" stop-color="rgb(96.295166%, 63.235474%, 63.235474%)" offset="0.265625"/><stop stop-opacity="1" stop-color="rgb(96.372986%, 63.496399%, 63.496399%)" offset="0.273437"/><stop stop-opacity="1" stop-color="rgb(96.450806%, 63.757324%, 63.757324%)" offset="0.28125"/><stop stop-opacity="1" stop-color="rgb(96.5271%, 64.01825%, 64.01825%)" offset="0.289062"/><stop stop-opacity="1" stop-color="rgb(96.604919%, 64.279175%, 64.279175%)" offset="0.296875"/><stop stop-opacity="1" stop-color="rgb(96.682739%, 64.5401%, 64.5401%)" offset="0.304687"/><stop stop-opacity="1" stop-color="rgb(96.760559%, 64.801025%, 64.801025%)" offset="0.3125"/><stop stop-opacity="1" stop-color="rgb(96.838379%, 65.061951%, 65.061951%)" offset="0.320312"/><stop stop-opacity="1" stop-color="rgb(96.914673%, 65.322876%, 65.322876%)" offset="0.328125"/><stop stop-opacity="1" stop-color="rgb(96.992493%, 65.583801%, 65.583801%)" offset="0.335937"/><stop stop-opacity="1" stop-color="rgb(97.070312%, 65.844727%, 65.844727%)" offset="0.34375"/><stop stop-opacity="1" stop-color="rgb(97.148132%, 66.105652%, 66.105652%)" offset="0.351562"/><stop stop-opacity="1" stop-color="rgb(97.225952%, 66.366577%, 66.366577%)" offset="0.359375"/><stop stop-opacity="1" stop-color="rgb(97.302246%, 66.627502%, 66.627502%)" offset="0.367187"/><stop stop-opacity="1" stop-color="rgb(97.380066%, 66.888428%, 66.888428%)" offset="0.375"/><stop stop-opacity="1" stop-color="rgb(97.457886%, 67.149353%, 67.149353%)" offset="0.382812"/><stop stop-opacity="1" stop-color="rgb(97.535706%, 67.408752%, 67.408752%)" offset="0.390625"/><stop stop-opacity="1" stop-color="rgb(97.613525%, 67.669678%, 67.669678%)" offset="0.398437"/><stop stop-opacity="1" stop-color="rgb(97.689819%, 67.930603%, 67.930603%)" offset="0.40625"/><stop stop-opacity="1" stop-color="rgb(97.767639%, 68.191528%, 68.191528%)" offset="0.414062"/><stop stop-opacity="1" stop-color="rgb(97.845459%, 68.452454%, 68.452454%)" offset="0.421875"/><stop stop-opacity="1" stop-color="rgb(97.923279%, 68.713379%, 68.713379%)" offset="0.429687"/><stop stop-opacity="1" stop-color="rgb(98.001099%, 68.974304%, 68.974304%)" offset="0.4375"/><stop stop-opacity="1" stop-color="rgb(98.077393%, 69.235229%, 69.235229%)" offset="0.445312"/><stop stop-opacity="1" stop-color="rgb(98.155212%, 69.496155%, 69.496155%)" offset="0.453125"/><stop stop-opacity="1" stop-color="rgb(98.233032%, 69.75708%, 69.75708%)" offset="0.460937"/><stop stop-opacity="1" stop-color="rgb(98.310852%, 70.018005%, 70.018005%)" offset="0.46875"/><stop stop-opacity="1" stop-color="rgb(98.388672%, 70.278931%, 70.278931%)" offset="0.476562"/><stop stop-opacity="1" stop-color="rgb(98.464966%, 70.539856%, 70.539856%)" offset="0.484375"/><stop stop-opacity="1" stop-color="rgb(98.542786%, 70.800781%, 70.800781%)" offset="0.492187"/><stop stop-opacity="1" stop-color="rgb(98.620605%, 71.061707%, 71.061707%)" offset="0.5"/><stop stop-opacity="1" stop-color="rgb(98.698425%, 71.321106%, 71.321106%)" offset="0.507812"/><stop stop-opacity="1" stop-color="rgb(98.776245%, 71.582031%, 71.582031%)" offset="0.515625"/><stop stop-opacity="1" stop-color="rgb(98.852539%, 71.842957%, 71.842957%)" offset="0.523437"/><stop stop-opacity="1" stop-color="rgb(98.930359%, 72.103882%, 72.103882%)" offset="0.53125"/><stop stop-opacity="1" stop-color="rgb(99.008179%, 72.364807%, 72.364807%)" offset="0.539062"/><stop stop-opacity="1" stop-color="rgb(99.085999%, 72.625732%, 72.625732%)" offset="0.546875"/><stop stop-opacity="1" stop-color="rgb(99.163818%, 72.886658%, 72.886658%)" offset="0.554687"/><stop stop-opacity="1" stop-color="rgb(99.240112%, 73.147583%, 73.147583%)" offset="0.5625"/><stop stop-opacity="1" stop-color="rgb(99.317932%, 73.408508%, 73.408508%)" offset="0.570312"/><stop stop-opacity="1" stop-color="rgb(99.395752%, 73.669434%, 73.669434%)" offset="0.578125"/><stop stop-opacity="1" stop-color="rgb(99.473572%, 73.930359%, 73.930359%)" offset="0.585938"/><stop stop-opacity="1" stop-color="rgb(99.549866%, 74.191284%, 74.191284%)" offset="0.59375"/><stop stop-opacity="1" stop-color="rgb(99.627686%, 74.452209%, 74.452209%)" offset="0.601562"/><stop stop-opacity="1" stop-color="rgb(99.705505%, 74.713135%, 74.713135%)" offset="0.609375"/><stop stop-opacity="1" stop-color="rgb(99.783325%, 74.97406%, 74.97406%)" offset="0.617187"/><stop stop-opacity="1" stop-color="rgb(99.861145%, 75.234985%, 75.234985%)" offset="0.625"/><stop stop-opacity="1" stop-color="rgb(99.937439%, 75.494385%, 75.494385%)" offset="0.632812"/><stop stop-opacity="1" stop-color="rgb(99.972534%, 75.714111%, 75.689697%)" offset="0.640625"/><stop stop-opacity="1" stop-color="rgb(99.923706%, 75.950623%, 75.830078%)" offset="0.65625"/><stop stop-opacity="1" stop-color="rgb(99.835205%, 76.245117%, 75.984192%)" offset="0.671875"/><stop stop-opacity="1" stop-color="rgb(99.74823%, 76.538086%, 76.13678%)" offset="0.6875"/><stop stop-opacity="1" stop-color="rgb(99.661255%, 76.831055%, 76.290894%)" offset="0.703125"/><stop stop-opacity="1" stop-color="rgb(99.572754%, 77.124023%, 76.443481%)" offset="0.71875"/><stop stop-opacity="1" stop-color="rgb(99.485779%, 77.416992%, 76.596069%)" offset="0.734375"/><stop stop-opacity="1" stop-color="rgb(99.398804%, 77.711487%, 76.750183%)" offset="0.75"/><stop stop-opacity="1" stop-color="rgb(99.310303%, 78.004456%, 76.902771%)" offset="0.765625"/><stop stop-opacity="1" stop-color="rgb(99.223328%, 78.297424%, 77.056885%)" offset="0.78125"/><stop stop-opacity="1" stop-color="rgb(99.136353%, 78.590393%, 77.209473%)" offset="0.796875"/><stop stop-opacity="1" stop-color="rgb(99.047852%, 78.883362%, 77.362061%)" offset="0.8125"/><stop stop-opacity="1" stop-color="rgb(98.960876%, 79.176331%, 77.516174%)" offset="0.828125"/><stop stop-opacity="1" stop-color="rgb(98.872375%, 79.470825%, 77.668762%)" offset="0.84375"/><stop stop-opacity="1" stop-color="rgb(98.7854%, 79.763794%, 77.82135%)" offset="0.859375"/><stop stop-opacity="1" stop-color="rgb(98.698425%, 80.056763%, 77.975464%)" offset="0.875"/><stop stop-opacity="1" stop-color="rgb(98.609924%, 80.349731%, 78.128052%)" offset="0.890625"/><stop stop-opacity="1" stop-color="rgb(98.522949%, 80.6427%, 78.282166%)" offset="0.90625"/><stop stop-opacity="1" stop-color="rgb(98.435974%, 80.935669%, 78.434753%)" offset="0.921875"/><stop stop-opacity="1" stop-color="rgb(98.347473%, 81.230164%, 78.587341%)" offset="0.9375"/><stop stop-opacity="1" stop-color="rgb(98.260498%, 81.523132%, 78.741455%)" offset="0.953125"/><stop stop-opacity="1" stop-color="rgb(98.173523%, 81.816101%, 78.894043%)" offset="0.96875"/><stop stop-opacity="1" stop-color="rgb(98.085022%, 82.10907%, 79.048157%)" offset="0.984375"/><stop stop-opacity="1" stop-color="rgb(98.020935%, 82.327271%, 79.161072%)" offset="1"/></linearGradient><clipPath id="0d81868da4"><path d="M 623 619.515625 L 1627 619.515625 L 1627 1629.316406 L 623 1629.316406 Z M 623 619.515625 " clip-rule="nonzero"/></clipPath><clipPath id="e97abf435c"><path d="M 963 824 L 1627 824 L 1627 1629.316406 L 963 1629.316406 Z M 963 824 " clip-rule="nonzero"/></clipPath><clipPath id="2c6a866686"><path d="M 623 619.515625 L 1627 619.515625 L 1627 1002 L 623 1002 Z M 623 619.515625 " clip-rule="nonzero"/></clipPath></defs><g clip-path="url(#92b1dbb670)"><path fill="#ffffff" d="M 0.5 0 L 2249.5 0 L 2249.5 2256.496094 L 0.5 2256.496094 Z M 0.5 0 " fill-opacity="1" fill-rule="nonzero"/><path fill="#ffffff" d="M 0.5 0 L 2249.5 0 L 2249.5 2249 L 0.5 2249 Z M 0.5 0 " fill-opacity="1" fill-rule="nonzero"/><path fill="#ffe9e9" d="M 0.5 0 L 2249.5 0 L 2249.5 2249 L 0.5 2249 Z M 0.5 0 " fill-opacity="1" fill-rule="nonzero"/></g><g clip-path="url(#61fb5d3eb3)"><g clip-path="url(#6ae8e52b83)"><path fill="url(#44b6df8656)" d="M 1895.53125 353.714844 L 354.214844 353.714844 L 354.214844 1895.03125 L 1895.53125 1895.03125 Z M 1895.53125 353.714844 " fill-rule="nonzero"/></g></g><g clip-path="url(#0d81868da4)"><path fill="#727ac4" d="M 623.171875 1373.710938 L 963.976562 1629.316406 L 1626.660156 1503.089844 L 1626.660156 875.121094 L 1285.851562 619.515625 L 623.171875 745.738281 Z M 623.171875 1373.710938 " fill-opacity="1" fill-rule="nonzero"/></g><g clip-path="url(#e97abf435c)"><path fill="#a6adff" d="M 970.289062 824.628906 L 963.976562 1001.347656 L 963.976562 1629.316406 L 1626.660156 1503.089844 L 1626.660156 875.121094 L 1557.238281 824.628906 Z M 970.289062 824.628906 " fill-opacity="1" fill-rule="nonzero"/></g><g clip-path="url(#2c6a866686)"><path fill="#d9dcff" d="M 1626.660156 875.121094 L 963.976562 1001.347656 L 623.171875 745.738281 L 1285.851562 619.515625 Z M 1626.660156 875.121094 " fill-opacity="1" fill-rule="nonzero"/></g><path fill="#ffe9e9" d="M 1497.28125 777.296875 L 834.597656 903.523438 L 752.550781 843.566406 L 1415.234375 717.339844 Z M 1497.28125 777.296875 " fill-opacity="1" fill-rule="nonzero"/><path fill="#df8181" d="M 834.597656 903.523438 L 834.597656 1092.859375 L 752.550781 1029.746094 L 752.550781 843.566406 Z M 834.597656 903.523438 " fill-opacity="1" fill-rule="nonzero"/><path fill="#ffe9e9" d="M 1307.941406 1376.867188 L 1285.851562 1380.023438 L 1295.320312 1465.222656 C 1295.320312 1471.535156 1292.164062 1474.691406 1285.851562 1474.691406 L 1241.671875 1484.15625 C 1235.363281 1484.15625 1232.207031 1481 1232.207031 1477.847656 L 1241.671875 1389.488281 L 1219.585938 1395.800781 C 1213.273438 1395.800781 1210.117188 1392.644531 1213.273438 1386.332031 L 1257.453125 1316.910156 C 1260.609375 1313.753906 1266.917969 1310.597656 1270.074219 1313.753906 L 1314.253906 1367.398438 C 1317.410156 1370.554688 1314.253906 1376.867188 1307.941406 1376.867188 Z M 1307.941406 1376.867188 " fill-opacity="1" fill-rule="nonzero"/><path fill="#ffe9e9" d="M 1175.40625 1402.109375 L 1153.316406 1405.265625 L 1162.78125 1490.46875 C 1162.78125 1496.78125 1159.628906 1499.9375 1153.316406 1499.9375 L 1109.136719 1509.402344 C 1102.824219 1509.402344 1099.671875 1506.246094 1099.671875 1503.089844 L 1109.136719 1414.734375 L 1087.046875 1417.890625 C 1080.738281 1417.890625 1077.582031 1414.734375 1080.738281 1408.421875 L 1124.914062 1339 C 1128.070312 1335.84375 1134.382812 1332.6875 1137.539062 1335.84375 L 1181.714844 1389.488281 C 1184.871094 1395.800781 1181.714844 1402.109375 1175.40625 1402.109375 Z M 1175.40625 1402.109375 " fill-opacity="1" fill-rule="nonzero"/><g fill="#ffe9e9" fill-opacity="1"><g transform="translate(1453.877448, 1028.34203)"><g><path d="M 45.59375 -25.21875 L 47.609375 -4.671875 L 37.15625 -3.640625 C 19.519531 -1.910156 9.847656 -9.78125 8.140625 -27.25 L 5.90625 -50.015625 L -2.59375 -49.1875 L -4.5625 -69.25 L 3.9375 -70.078125 L 2.296875 -86.8125 L 26.53125 -89.1875 L 28.171875 -72.453125 L 40.71875 -73.6875 L 42.6875 -53.625 L 30.140625 -52.390625 L 32.40625 -29.265625 C 32.59375 -27.378906 33.15625 -26.066406 34.09375 -25.328125 C 35.03125 -24.585938 36.53125 -24.320312 38.59375 -24.53125 Z M 45.59375 -25.21875 "/></g></g></g><g fill="#ffe9e9" fill-opacity="1"><g transform="translate(1505.673088, 1023.262401)"><g><path d="M 48.546875 -3.890625 C 40.429688 -3.097656 32.785156 -4.273438 25.609375 -7.421875 C 18.429688 -10.566406 12.519531 -15.328125 7.875 -21.703125 C 3.226562 -28.085938 0.488281 -35.546875 -0.34375 -44.078125 C -1.175781 -52.609375 0.0625 -60.445312 3.375 -67.59375 C 6.6875 -74.75 11.5625 -80.546875 18 -84.984375 C 24.4375 -89.429688 31.710938 -92.050781 39.828125 -92.84375 C 48.035156 -93.644531 55.707031 -92.488281 62.84375 -89.375 C 69.976562 -86.269531 75.847656 -81.53125 80.453125 -75.15625 C 85.054688 -68.78125 87.773438 -61.328125 88.609375 -52.796875 C 89.441406 -44.265625 88.222656 -36.421875 84.953125 -29.265625 C 81.679688 -22.109375 76.828125 -16.289062 70.390625 -11.8125 C 63.953125 -7.332031 56.671875 -4.691406 48.546875 -3.890625 Z M 46.359375 -26.28125 C 52.515625 -26.882812 57.175781 -29.367188 60.34375 -33.734375 C 63.519531 -38.109375 64.78125 -43.660156 64.125 -50.390625 C 63.445312 -57.265625 61.128906 -62.519531 57.171875 -66.15625 C 53.210938 -69.789062 48.15625 -71.304688 42 -70.703125 C 35.769531 -70.097656 31.085938 -67.628906 27.953125 -63.296875 C 24.816406 -58.960938 23.585938 -53.359375 24.265625 -46.484375 C 24.929688 -39.671875 27.222656 -34.445312 31.140625 -30.8125 C 35.054688 -27.1875 40.128906 -25.675781 46.359375 -26.28125 Z M 46.359375 -26.28125 "/></g></g></g></svg>